<svg width="15" height="10" viewBox="0 0 15 10" fill="none" xmlns="http://www.w3.org/2000/svg">
<path d="M13.52 0.304919C13.3814 0.309048 13.2499 0.366957 13.1533 0.466378L4.99705 8.62263L1.6408 5.26638C1.59166 5.21519 1.53279 5.17433 1.46766 5.14617C1.40252 5.11802 1.33242 5.10315 1.26147 5.10243C1.19051 5.10171 1.12013 5.11515 1.05443 5.14197C0.98874 5.16879 0.929057 5.20845 0.878882 5.25863C0.828706 5.3088 0.789047 5.36848 0.762226 5.43418C0.735405 5.49987 0.721962 5.57026 0.722684 5.64121C0.723406 5.71217 0.738278 5.78227 0.76643 5.8474C0.794582 5.91254 0.835448 5.9714 0.886633 6.02054L4.61997 9.75388C4.71999 9.85386 4.85563 9.91002 4.99705 9.91002C5.13847 9.91002 5.27411 9.85386 5.37413 9.75388L13.9075 1.22054C13.9845 1.14563 14.0372 1.04918 14.0585 0.943839C14.0798 0.838495 14.0688 0.72917 14.0269 0.630191C13.985 0.531212 13.9142 0.447196 13.8237 0.389154C13.7333 0.331112 13.6274 0.301751 13.52 0.304919Z" fill="#1B153A"/>
</svg>
